<?xml version="1.0" encoding="UTF-8" standalone="no"?>
<!DOCTYPE svg PUBLIC "-//W3C//DTD SVG 1.1//EN" "http://www.w3.org/Graphics/SVG/1.1/DTD/svg11.dtd">
<!-- Created with Vectornator (http://vectornator.io/) -->
<svg height="100%" stroke-miterlimit="10" style="fill-rule:nonzero;clip-rule:evenodd;stroke-linecap:round;stroke-linejoin:round;" version="1.1" viewBox="0 0 446 230" width="100%" xml:space="preserve" xmlns="http://www.w3.org/2000/svg" xmlns:vectornator="http://vectornator.io" xmlns:xlink="http://www.w3.org/1999/xlink">
<defs/>
<clipPath id="ArtboardFrame">
<rect height="230" width="446" x="0" y="0"/>
</clipPath>
<g clip-path="url(#ArtboardFrame)" id="Untitled" vectornator:layerName="Untitled">
<path d="M243.15 75.0057L233.15 75.0057C232.866 74.9916 232.588 75.0878 232.374 75.2741C232.16 75.4604 232.026 75.7223 232 76.005L232 152.747C232 153.036 232.115 153.313 232.319 153.517C232.524 153.722 232.801 153.836 233.09 153.836L243.09 153.836C243.379 153.836 243.656 153.722 243.861 153.517C244.065 153.313 244.18 153.036 244.18 152.747L244.18 151.958C244.18 151.766 244.231 151.579 244.328 151.414C244.425 151.248 244.563 151.112 244.73 151.018L245.27 150.868L245.82 151.028C246.935 151.684 248.091 152.268 249.28 152.777C253.585 154.589 258.272 155.308 262.923 154.871C267.574 154.434 272.044 152.854 275.936 150.272C279.828 147.69 283.02 144.186 285.228 140.072C287.436 135.958 288.592 131.362 288.592 126.693C288.592 122.025 287.436 117.429 285.228 113.315C283.02 109.201 279.828 105.697 275.936 103.115C272.044 100.532 267.574 98.9524 262.923 98.5153C258.272 98.0783 253.585 98.7977 249.28 100.61C248.09 101.122 246.935 101.709 245.82 102.369L245.27 102.519L244.73 102.379C244.563 102.283 244.423 102.145 244.327 101.978C244.23 101.811 244.18 101.622 244.18 101.429L244.18 76.095C244.181 75.821 244.079 75.5567 243.893 75.3548C243.708 75.153 243.453 75.0283 243.18 75.0057L243.15 75.0057ZM23.6505 134.878C23.5074 134.881 23.3651 134.855 23.2319 134.803C23.0986 134.751 22.977 134.673 22.8739 134.573C22.7708 134.474 22.6883 134.355 22.6311 134.224C22.5739 134.093 22.5431 133.952 22.5405 133.809C22.5413 133.64 22.5788 133.473 22.6505 133.319L42.2805 92.2549C42.3739 92.0699 42.5168 91.9144 42.6934 91.8058C42.8699 91.6971 43.0732 91.6396 43.2805 91.6396C43.4879 91.6396 43.6911 91.6971 43.8677 91.8058C44.0442 91.9144 44.1872 92.0699 44.2805 92.2549L63.8505 133.319C63.9748 133.581 63.9909 133.88 63.8954 134.153C63.7999 134.427 63.6006 134.651 63.3405 134.778C63.1864 134.847 63.0192 134.881 62.8505 134.878L62.3805 134.778L43.7305 125.864L43.2605 125.764L42.7905 125.864L24.1205 134.778L23.6505 134.878ZM322.31 142.773C318.579 142.774 314.963 141.481 312.078 139.116C309.193 136.75 307.218 133.458 306.489 129.801C305.761 126.144 306.323 122.347 308.082 119.058C309.84 115.769 312.685 113.19 316.132 111.762C319.579 110.334 323.415 110.145 326.986 111.226C330.557 112.307 333.643 114.593 335.717 117.692C337.791 120.792 338.726 124.515 338.362 128.226C337.998 131.938 336.357 135.408 333.72 138.046C332.222 139.545 330.444 140.733 328.486 141.545C326.528 142.356 324.429 142.773 322.31 142.773ZM260.37 142.773C256.633 142.776 253.011 141.483 250.122 139.115C247.232 136.747 245.253 133.452 244.522 129.789C243.792 126.127 244.354 122.324 246.115 119.03C247.875 115.736 250.724 113.154 254.176 111.724C257.628 110.294 261.469 110.104 265.045 111.188C268.622 112.271 271.711 114.56 273.788 117.665C275.864 120.77 276.799 124.498 276.433 128.215C276.067 131.931 274.423 135.406 271.78 138.046C270.287 139.551 268.509 140.743 266.55 141.555C264.591 142.366 262.491 142.78 260.37 142.773ZM193.57 142.773C189.834 142.771 186.215 141.474 183.328 139.104C180.441 136.734 178.466 133.437 177.739 129.774C177.012 126.112 177.578 122.311 179.341 119.019C181.103 115.727 183.953 113.148 187.405 111.72C190.857 110.292 194.698 110.105 198.273 111.19C201.847 112.274 204.935 114.564 207.01 117.669C209.085 120.774 210.019 124.501 209.653 128.217C209.286 131.933 207.642 135.406 205 138.046C203.507 139.551 201.729 140.743 199.77 141.555C197.811 142.366 195.711 142.78 193.59 142.773L193.57 142.773ZM137.71 99.5903L126.61 99.5903C126.401 99.5859 126.196 99.6421 126.018 99.752C125.841 99.862 125.699 100.021 125.61 100.21L109 134.968C108.912 135.158 108.771 135.318 108.593 135.428C108.415 135.538 108.209 135.594 108 135.588C107.792 135.587 107.589 135.529 107.412 135.42C107.236 135.31 107.093 135.154 107 134.968L90.4605 100.21C90.3727 100.02 90.2311 99.8605 90.0534 99.7504C89.8757 99.6403 89.6696 99.5846 89.4605 99.5903L78.3905 99.5903C78.2474 99.5876 78.1051 99.6132 77.9719 99.6655C77.8386 99.7178 77.7169 99.7958 77.6139 99.8951C77.5108 99.9944 77.4283 100.113 77.3711 100.244C77.3139 100.375 77.2831 100.517 77.2805 100.66C77.2813 100.829 77.3188 100.996 77.3905 101.149L102.25 153.217C102.341 153.404 102.483 153.562 102.66 153.671C102.837 153.781 103.042 153.838 103.25 153.836L112.84 153.836C113.048 153.836 113.251 153.778 113.428 153.668C113.605 153.559 113.747 153.403 113.84 153.217L138.7 101.149C138.778 100.983 138.812 100.799 138.8 100.616C138.788 100.432 138.729 100.255 138.63 100.1C138.535 99.9438 138.402 99.8148 138.242 99.7255C138.083 99.6362 137.903 99.5896 137.72 99.5903L137.71 99.5903ZM156.43 99.5903L146.43 99.5903C146.141 99.5903 145.864 99.7051 145.659 99.9093C145.455 100.114 145.34 100.391 145.34 100.68L145.34 152.747C145.34 153.036 145.455 153.313 145.659 153.517C145.864 153.722 146.141 153.836 146.43 153.836L156.43 153.836C156.719 153.836 156.996 153.722 157.201 153.517C157.405 153.313 157.52 153.036 157.52 152.747L157.52 100.68C157.52 100.391 157.405 100.114 157.201 99.9093C156.996 99.7051 156.719 99.5903 156.43 99.5903L156.43 99.5903ZM423.9 98.381L404.7 98.381C401.676 98.3698 398.709 99.1994 396.13 100.777C393.551 102.355 391.462 104.618 390.096 107.314C388.731 110.01 388.143 113.033 388.398 116.044C388.653 119.055 389.741 121.936 391.54 124.365C393.54 127.113 396.14 128.472 399.54 129.632L413.2 134.169C414.096 134.505 414.855 135.127 415.361 135.938C415.868 136.749 416.092 137.704 416 138.656C416 139.198 415.893 139.735 415.686 140.235C415.478 140.736 415.174 141.191 414.79 141.574C414.407 141.958 413.952 142.262 413.451 142.469C412.95 142.677 412.412 142.783 411.87 142.783L392.69 142.783C392.401 142.783 392.124 142.898 391.919 143.102C391.715 143.307 391.6 143.584 391.6 143.873L391.6 153.866C391.6 154.155 391.715 154.432 391.919 154.637C392.124 154.841 392.401 154.956 392.69 154.956L411.9 154.956C414.914 154.956 417.869 154.123 420.437 152.547C423.006 150.971 425.087 148.714 426.45 146.028C427.813 143.342 428.405 140.331 428.16 137.329C427.914 134.327 426.841 131.451 425.06 129.022C423.06 126.284 420.31 124.835 417.06 123.755L403.37 119.168C402.487 118.815 401.738 118.192 401.232 117.388C400.725 116.583 400.486 115.639 400.55 114.691C400.55 113.597 400.984 112.548 401.756 111.772C402.528 110.997 403.576 110.559 404.67 110.553L423.88 110.553C424.023 110.557 424.166 110.533 424.3 110.482C424.433 110.431 424.556 110.354 424.66 110.256C424.764 110.157 424.847 110.039 424.906 109.909C424.964 109.778 424.996 109.637 425 109.494L425 99.5003C425 99.2114 424.885 98.9344 424.681 98.7301C424.476 98.5258 424.199 98.411 423.91 98.411L423.9 98.381ZM322.33 98.411C315.331 98.4176 308.584 101.022 303.398 105.72C298.213 110.417 294.958 116.872 294.265 123.832C293.573 130.792 295.492 137.762 299.651 143.387C303.81 149.013 309.912 152.894 316.772 154.278C323.633 155.662 330.763 154.449 336.78 150.876C342.796 147.302 347.27 141.623 349.333 134.939C351.396 128.255 350.901 121.044 347.944 114.704C344.987 108.364 339.779 103.349 333.33 100.63C329.849 99.1619 326.108 98.4074 322.33 98.411L322.33 98.411ZM368 86.6684L358 86.6684C357.711 86.6684 357.434 86.7831 357.229 86.9874C357.025 87.1917 356.91 87.4688 356.91 87.7577L356.91 129.971C356.91 136.598 359.544 142.952 364.232 147.638C368.921 152.323 375.28 154.956 381.91 154.956C382.053 154.956 382.195 154.928 382.327 154.873C382.459 154.818 382.58 154.738 382.681 154.637C382.782 154.536 382.862 154.415 382.917 154.283C382.972 154.151 383 154.009 383 153.866L383 143.873C383 143.586 382.886 143.312 382.684 143.109C382.481 142.907 382.207 142.793 381.92 142.793C380.236 142.795 378.568 142.464 377.012 141.82C375.456 141.175 374.042 140.231 372.852 139.04C371.662 137.848 370.719 136.434 370.077 134.878C369.435 133.322 369.106 131.655 369.11 129.971L369.11 111.653C369.11 111.367 369.224 111.092 369.426 110.89C369.629 110.687 369.904 110.573 370.19 110.573L381.91 110.573C382.053 110.573 382.195 110.545 382.327 110.491C382.459 110.436 382.58 110.356 382.681 110.254C382.782 110.153 382.862 110.033 382.917 109.901C382.972 109.769 383 109.627 383 109.484L383 109.484L383 99.4903C383 99.2014 382.885 98.9244 382.681 98.7201C382.476 98.5158 382.199 98.401 381.91 98.401L370.2 98.401C370.058 98.4023 369.918 98.3757 369.786 98.3227C369.655 98.2697 369.535 98.1913 369.434 98.092C369.332 97.9927 369.252 97.8744 369.196 97.744C369.141 97.6135 369.111 97.4734 369.11 97.3317L369.11 97.3317L369.11 87.7577C369.112 87.6125 369.084 87.4686 369.028 87.3345C368.973 87.2004 368.89 87.0789 368.787 86.9772C368.683 86.8755 368.56 86.7957 368.425 86.7426C368.29 86.6896 368.145 86.6643 368 86.6684L368 86.6684ZM48.8205 75.0057L37.6905 75.0057C37.4825 75.0049 37.2784 75.0626 37.1016 75.1722C36.9248 75.2817 36.7824 75.4387 36.6905 75.6253L0.110565 152.277C0.028348 152.442-0.00936279 152.626 0.00115997 152.81C0.0116827 152.994 0.0700748 153.172 0.170565 153.327C0.268432 153.482 0.404113 153.611 0.564973 153.7C0.725833 153.789 0.906643 153.836 1.09056 153.836L12.2105 153.836L12.6805 153.726L42.7905 139.365L43.2605 139.256L43.7305 139.365L73.8405 153.726L74.3105 153.836L85.4305 153.836C85.5737 153.839 85.7159 153.814 85.8492 153.761C85.9825 153.709 86.1041 153.631 86.2072 153.532C86.3103 153.432 86.3928 153.314 86.45 153.182C86.5071 153.051 86.5379 152.91 86.5405 152.767C86.5398 152.598 86.5022 152.431 86.4305 152.277L49.8005 75.6253C49.7116 75.4364 49.5699 75.2774 49.3924 75.1674C49.2149 75.0575 49.0093 75.0013 48.8005 75.0057L48.8205 75.0057ZM151.41 75.0057C150.028 75.0155 148.679 75.4342 147.535 76.2088C146.39 76.9835 145.501 78.0795 144.979 79.3586C144.457 80.6377 144.325 82.0427 144.601 83.3964C144.877 84.7501 145.547 85.992 146.528 86.9653C147.509 87.9387 148.756 88.6 150.113 88.8659C151.469 89.1318 152.874 88.9904 154.15 88.4595C155.427 87.9286 156.517 87.0319 157.284 85.8826C158.051 84.7333 158.46 83.3827 158.46 82.0013C158.46 81.0784 158.277 80.1646 157.923 79.3126C157.568 78.4606 157.048 77.6871 156.392 77.0369C155.737 76.3866 154.959 75.8724 154.104 75.5238C153.249 75.1751 152.334 74.9991 151.41 75.0057L151.41 75.0057ZM220.81 75.0057L210.81 75.0057C210.668 75.0057 210.528 75.0336 210.397 75.0878C210.266 75.1421 210.147 75.2216 210.046 75.3218C209.946 75.422 209.867 75.541 209.812 75.6719C209.758 75.8029 209.73 75.9432 209.73 76.085L209.73 76.085L209.73 101.369C209.732 101.563 209.681 101.754 209.582 101.922C209.483 102.089 209.341 102.226 209.17 102.319L208.64 102.459L208.08 102.309C206.967 101.647 205.811 101.06 204.62 100.55C200.313 98.7328 195.623 98.0093 190.968 98.4438C186.314 98.8783 181.839 100.457 177.943 103.04C174.047 105.622 170.851 109.128 168.641 113.245C166.43 117.362 165.273 121.961 165.273 126.633C165.273 131.306 166.43 135.905 168.641 140.022C170.851 144.138 174.047 147.644 177.943 150.227C181.839 152.81 186.314 154.389 190.968 154.823C195.623 155.258 200.313 154.534 204.62 152.717C205.806 152.211 206.955 151.623 208.06 150.958L208.62 150.798L209.15 150.948C209.319 151.04 209.461 151.176 209.559 151.341C209.658 151.506 209.71 151.695 209.71 151.888L209.71 152.727C209.709 152.869 209.735 153.009 209.789 153.141C209.842 153.272 209.92 153.392 210.019 153.493C210.119 153.594 210.237 153.675 210.368 153.73C210.498 153.786 210.638 153.815 210.78 153.816L220.78 153.816C220.923 153.816 221.065 153.788 221.197 153.734C221.33 153.679 221.45 153.599 221.551 153.497C221.652 153.396 221.732 153.276 221.787 153.144C221.842 153.012 221.87 152.87 221.87 152.727L221.87 76.095C221.87 75.8112 221.76 75.5386 221.562 75.3351C221.364 75.1317 221.094 75.0135 220.81 75.0057L220.81 75.0057ZM446 91.9351C446.008 93.2159 445.636 94.4702 444.93 95.5395C444.225 96.6089 443.218 97.4451 442.037 97.9425C440.856 98.44 439.554 98.5762 438.295 98.3341C437.037 98.092 435.878 97.4823 434.967 96.5823C434.055 95.6822 433.43 94.5322 433.173 93.2775C432.915 92.0229 433.035 90.72 433.518 89.5337C434.001 88.3474 434.826 87.3309 435.887 86.6127C436.948 85.8946 438.199 85.507 439.48 85.4991L439.55 85.4991C440.379 85.4792 441.204 85.623 441.977 85.9224C442.751 86.2218 443.457 86.6708 444.056 87.2437C444.656 87.8166 445.136 88.502 445.469 89.2608C445.803 90.0195 445.983 90.8367 446 91.6652L446 91.9351ZM444.94 91.9351C444.978 90.5362 444.459 89.1794 443.497 88.1622C442.536 87.145 441.21 86.5503 439.81 86.5085L439.55 86.5085C438.847 86.4898 438.148 86.6098 437.492 86.8614C436.836 87.113 436.235 87.4914 435.726 87.975C435.216 88.4585 434.806 89.0377 434.52 89.6795C434.235 90.3212 434.078 91.013 434.06 91.7152L434.06 91.995C434.06 92.7063 434.2 93.4107 434.473 94.0679C434.745 94.7251 435.144 95.3222 435.648 95.8252C436.151 96.3281 436.748 96.7271 437.406 96.9993C438.064 97.2715 438.768 97.4116 439.48 97.4116C440.192 97.4116 440.897 97.2715 441.554 96.9993C442.212 96.7271 442.809 96.3281 443.313 95.8252C443.816 95.3222 444.215 94.7251 444.488 94.0679C444.76 93.4107 444.9 92.7063 444.9 91.995L444.9 91.995L444.94 91.9351ZM441.42 93.1043L443 95.5828L441.42 95.5828L440 93.3742L438.37 93.3742L438.37 95.5828L436.79 95.5828L436.79 88.3573L439.79 88.3573C441.7 88.3573 442.79 89.3567 442.79 90.8657C442.825 91.3404 442.707 91.8139 442.453 92.2167C442.2 92.6195 441.824 92.9306 441.38 93.1043L441.42 93.1043ZM439.73 92.1549C440.73 92.1549 441.34 91.6752 441.34 90.8657C441.34 90.0562 440.76 89.6065 439.73 89.6065L438.37 89.6065L438.37 92.1549L439.73 92.1549Z" fill="#000000" fill-rule="nonzero" opacity="1" stroke="none"/>
</g>
</svg>
